<?xml version="1.0" standalone="no"?>
<!DOCTYPE svg PUBLIC "-//W3C//DTD SVG 20010904//EN"
 "http://www.w3.org/TR/2001/REC-SVG-20010904/DTD/svg10.dtd">
<svg version="1.0" xmlns="http://www.w3.org/2000/svg"
 width="64.000000pt" height="64.000000pt" viewBox="0 0 64.000000 64.000000"
 preserveAspectRatio="xMidYMid meet">

<g transform="translate(0.000000,64.000000) scale(0.100000,-0.100000)"
fill="#000000" stroke="none">
<path d="M93 406 c-18 -18 -33 -39 -33 -45 0 -7 -10 -21 -22 -32 l-23 -19 22
-19 c13 -11 23 -25 23 -33 0 -7 15 -28 34 -45 33 -33 56 -42 56 -23 0 6 -7 10
-15 10 -12 0 -15 19 -15 110 0 103 1 110 20 110 19 0 20 -7 20 -110 0 -67 4
-110 10 -110 6 0 10 18 10 40 0 28 4 40 14 40 8 0 18 -5 21 -11 4 -5 18 -14
31 -19 29 -11 32 -49 9 -124 -17 -56 -20 -106 -6 -106 6 0 13 21 16 48 4 26
11 60 16 76 5 16 9 46 9 68 0 34 -5 41 -35 59 -25 15 -35 28 -35 45 0 13 5 24
10 24 6 0 10 -9 10 -20 0 -36 19 -21 22 18 l3 37 65 0 65 0 3 -51 c2 -36 -1
-54 -13 -64 -19 -16 -19 -63 0 -126 8 -27 15 -64 15 -81 0 -18 5 -33 10 -33
15 0 12 49 -5 106 -8 27 -15 62 -15 77 0 36 27 77 51 77 15 0 19 -7 19 -38 0
-21 5 -43 12 -50 15 -15 38 -16 38 -2 0 6 -7 10 -15 10 -12 0 -15 19 -15 110
0 103 1 110 20 110 19 0 20 -7 20 -110 0 -67 4 -110 10 -110 6 0 10 9 10 20 0
13 7 20 20 20 12 0 20 7 20 16 0 9 10 24 23 35 l22 19 -22 19 c-13 11 -23 25
-23 33 0 17 -63 78 -82 78 -24 0 -38 -22 -38 -62 0 -31 -4 -38 -20 -38 -13 0
-20 7 -20 18 0 32 -22 42 -88 42 -56 0 -69 -4 -102 -30 -21 -16 -41 -30 -44
-30 -3 0 -6 17 -6 38 0 69 -37 81 -87 28z m-6 -123 c-2 -21 -4 -6 -4 32 0 39
2 55 4 38 2 -18 2 -50 0 -70z m470 0 c-2 -21 -4 -6 -4 32 0 39 2 55 4 38 2
-18 2 -50 0 -70z"/>
<path d="M280 350 c0 -5 23 -10 50 -10 28 0 50 5 50 10 0 6 -22 10 -50 10 -27
0 -50 -4 -50 -10z"/>
</g>
</svg>
